<?xml version="1.0" encoding="UTF-8" standalone="no"?>
<!DOCTYPE svg PUBLIC "-//W3C//DTD SVG 1.1//EN"
 "http://www.w3.org/Graphics/SVG/1.1/DTD/svg11.dtd">
<!-- Generated by graphviz version 2.47.0 (20210316.0004)
 -->
<!-- Title: dependencies Pages: 1 -->
<svg width="600pt" height="211pt"
 viewBox="0.00 0.00 600.00 211.00" xmlns="http://www.w3.org/2000/svg" xmlns:xlink="http://www.w3.org/1999/xlink">
<g id="graph0" class="graph" transform="scale(1 1) rotate(0) translate(4 207)">
<title>dependencies</title>
<polygon fill="white" stroke="transparent" points="-4,4 -4,-207 596,-207 596,4 -4,4"/>
<text text-anchor="start" x="275.01" y="-42.4" font-family="Times-12" font-weight="bold" font-size="14.00">Legend</text>
<polygon fill="#ffffb3" stroke="transparent" points="62,-10 62,-30 82,-30 82,-10 62,-10"/>
<text text-anchor="start" x="85.63" y="-15.4" font-family="Times-12" font-size="14.00"> &#160;Declarations</text>
<polygon fill="#8dd3c7" stroke="transparent" points="175,-10 175,-30 195,-30 195,-10 175,-10"/>
<text text-anchor="start" x="198.73" y="-15.4" font-family="Times-12" font-size="14.00"> &#160;Module</text>
<polygon fill="#80b1d3" stroke="transparent" points="261,-10 261,-30 281,-30 281,-10 261,-10"/>
<text text-anchor="start" x="284.78" y="-15.4" font-family="Times-12" font-size="14.00"> &#160;Bootstrap</text>
<polygon fill="#fdb462" stroke="transparent" points="358,-10 358,-30 378,-30 378,-10 358,-10"/>
<text text-anchor="start" x="381.67" y="-15.4" font-family="Times-12" font-size="14.00"> &#160;Providers</text>
<polygon fill="#fb8072" stroke="transparent" points="454,-10 454,-30 474,-30 474,-10 454,-10"/>
<text text-anchor="start" x="477.73" y="-15.4" font-family="Times-12" font-size="14.00"> &#160;Exports</text>
<g id="clust1" class="cluster">
<title>cluster_AppModule</title>
<polygon fill="none" stroke="black" stroke-dasharray="1,5" points="8,-70 8,-195 584,-195 584,-70 8,-70"/>
</g>
<g id="clust3" class="cluster">
<title>cluster_AppModule_imports</title>
<polygon fill="none" stroke="black" points="154,-78 154,-130 576,-130 576,-78 154,-78"/>
</g>
<g id="clust6" class="cluster">
<title>cluster_AppModule_providers</title>
<polygon fill="none" stroke="black" points="16,-78 16,-130 146,-130 146,-78 16,-78"/>
</g>
<!-- AuthModule -->
<g id="node1" class="node">
<title>AuthModule</title>
<polygon fill="#8dd3c7" stroke="black" points="567.55,-122 564.55,-126 543.55,-126 540.55,-122 480.45,-122 480.45,-86 567.55,-86 567.55,-122"/>
<text text-anchor="middle" x="524" y="-99.8" font-family="Times,serif" font-size="14.00">AuthModule</text>
</g>
<!-- AppModule -->
<g id="node5" class="node">
<title>AppModule</title>
<polygon fill="#8dd3c7" stroke="black" points="355.66,-187 352.66,-191 331.66,-191 328.66,-187 272.34,-187 272.34,-151 355.66,-151 355.66,-187"/>
<text text-anchor="middle" x="314" y="-164.8" font-family="Times,serif" font-size="14.00">AppModule</text>
</g>
<!-- AuthModule&#45;&gt;AppModule -->
<g id="edge1" class="edge">
<title>AuthModule&#45;&gt;AppModule</title>
<path fill="none" stroke="black" d="M524,-122.28C524,-143.32 524,-175 524,-175 524,-175 365.74,-175 365.74,-175"/>
<polygon fill="black" stroke="black" points="365.74,-171.5 355.74,-175 365.74,-178.5 365.74,-171.5"/>
</g>
<!-- PostsModule -->
<g id="node2" class="node">
<title>PostsModule</title>
<polygon fill="#8dd3c7" stroke="black" points="462.61,-122 459.61,-126 438.61,-126 435.61,-122 373.39,-122 373.39,-86 462.61,-86 462.61,-122"/>
<text text-anchor="middle" x="418" y="-99.8" font-family="Times,serif" font-size="14.00">PostsModule</text>
</g>
<!-- PostsModule&#45;&gt;AppModule -->
<g id="edge2" class="edge">
<title>PostsModule&#45;&gt;AppModule</title>
<path fill="none" stroke="black" d="M418,-122.02C418,-139.37 418,-163 418,-163 418,-163 365.7,-163 365.7,-163"/>
<polygon fill="black" stroke="black" points="365.7,-159.5 355.7,-163 365.7,-166.5 365.7,-159.5"/>
</g>
<!-- TestModule -->
<g id="node3" class="node">
<title>TestModule</title>
<polygon fill="#8dd3c7" stroke="black" points="355.65,-122 352.65,-126 331.65,-126 328.65,-122 272.35,-122 272.35,-86 355.65,-86 355.65,-122"/>
<text text-anchor="middle" x="314" y="-99.8" font-family="Times,serif" font-size="14.00">TestModule</text>
</g>
<!-- TestModule&#45;&gt;AppModule -->
<g id="edge3" class="edge">
<title>TestModule&#45;&gt;AppModule</title>
<path fill="none" stroke="black" d="M314,-122.11C314,-122.11 314,-140.99 314,-140.99"/>
<polygon fill="black" stroke="black" points="310.5,-140.99 314,-150.99 317.5,-140.99 310.5,-140.99"/>
</g>
<!-- UsersModule -->
<g id="node4" class="node">
<title>UsersModule</title>
<polygon fill="#8dd3c7" stroke="black" points="253.92,-122 250.92,-126 229.92,-126 226.92,-122 162.08,-122 162.08,-86 253.92,-86 253.92,-122"/>
<text text-anchor="middle" x="208" y="-99.8" font-family="Times,serif" font-size="14.00">UsersModule</text>
</g>
<!-- UsersModule&#45;&gt;AppModule -->
<g id="edge4" class="edge">
<title>UsersModule&#45;&gt;AppModule</title>
<path fill="none" stroke="black" d="M208,-122.02C208,-139.37 208,-163 208,-163 208,-163 262.11,-163 262.11,-163"/>
<polygon fill="black" stroke="black" points="262.11,-166.5 272.11,-163 262.11,-159.5 262.11,-166.5"/>
</g>
<!-- AppService -->
<g id="node6" class="node">
<title>AppService</title>
<ellipse fill="#fdb462" stroke="black" cx="81" cy="-104" rx="56.74" ry="18"/>
<text text-anchor="middle" x="81" y="-99.8" font-family="Times,serif" font-size="14.00">AppService</text>
</g>
<!-- AppService&#45;&gt;AppModule -->
<g id="edge5" class="edge">
<title>AppService&#45;&gt;AppModule</title>
<path fill="none" stroke="black" d="M81,-122.28C81,-143.32 81,-175 81,-175 81,-175 262.08,-175 262.08,-175"/>
<polygon fill="black" stroke="black" points="262.08,-178.5 272.08,-175 262.08,-171.5 262.08,-178.5"/>
</g>
</g>
</svg>
