<?xml version="1.0" encoding="UTF-8" standalone="no"?>
<!DOCTYPE svg PUBLIC "-//W3C//DTD SVG 1.1//EN"
 "http://www.w3.org/Graphics/SVG/1.1/DTD/svg11.dtd">
<!-- Generated by graphviz version 2.47.0 (20210316.0004)
 -->
<!-- Title: dependencies Pages: 1 -->
<svg width="1207pt" height="363pt"
 viewBox="0.00 0.00 1207.00 363.00" xmlns="http://www.w3.org/2000/svg" xmlns:xlink="http://www.w3.org/1999/xlink">
<g id="graph0" class="graph" transform="scale(1 1) rotate(0) translate(4 359)">
<title>dependencies</title>
<polygon fill="white" stroke="transparent" points="-4,4 -4,-359 1203,-359 1203,4 -4,4"/>
<text text-anchor="start" x="578.51" y="-42.4" font-family="Times-12" font-weight="bold" font-size="14.00">Legend</text>
<polygon fill="#ffffb3" stroke="transparent" points="365.5,-10 365.5,-30 385.5,-30 385.5,-10 365.5,-10"/>
<text text-anchor="start" x="389.13" y="-15.4" font-family="Times-12" font-size="14.00"> &#160;Declarations</text>
<polygon fill="#8dd3c7" stroke="transparent" points="478.5,-10 478.5,-30 498.5,-30 498.5,-10 478.5,-10"/>
<text text-anchor="start" x="502.23" y="-15.4" font-family="Times-12" font-size="14.00"> &#160;Module</text>
<polygon fill="#80b1d3" stroke="transparent" points="564.5,-10 564.5,-30 584.5,-30 584.5,-10 564.5,-10"/>
<text text-anchor="start" x="588.28" y="-15.4" font-family="Times-12" font-size="14.00"> &#160;Bootstrap</text>
<polygon fill="#fdb462" stroke="transparent" points="661.5,-10 661.5,-30 681.5,-30 681.5,-10 661.5,-10"/>
<text text-anchor="start" x="685.17" y="-15.4" font-family="Times-12" font-size="14.00"> &#160;Providers</text>
<polygon fill="#fb8072" stroke="transparent" points="757.5,-10 757.5,-30 777.5,-30 777.5,-10 757.5,-10"/>
<text text-anchor="start" x="781.23" y="-15.4" font-family="Times-12" font-size="14.00"> &#160;Exports</text>
<g id="clust1" class="cluster">
<title>cluster_AppModule</title>
<polygon fill="none" stroke="black" stroke-dasharray="1,5" points="168,-146 168,-347 637,-347 637,-146 168,-146"/>
</g>
<g id="clust3" class="cluster">
<title>cluster_AppModule_imports</title>
<polygon fill="none" stroke="black" points="314,-154 314,-282 629,-282 629,-154 314,-154"/>
</g>
<g id="clust6" class="cluster">
<title>cluster_AppModule_providers</title>
<polygon fill="none" stroke="black" points="176,-230 176,-282 306,-282 306,-230 176,-230"/>
</g>
<g id="clust7" class="cluster">
<title>cluster_AuthModule</title>
<polygon fill="none" stroke="black" stroke-dasharray="1,5" points="645,-222 645,-290 909,-290 909,-222 645,-222"/>
</g>
<g id="clust10" class="cluster">
<title>cluster_AuthModule_exports</title>
<polygon fill="none" stroke="black" points="795,-230 795,-282 901,-282 901,-230 795,-230"/>
</g>
<g id="clust12" class="cluster">
<title>cluster_AuthModule_providers</title>
<polygon fill="none" stroke="black" points="653,-230 653,-282 787,-282 787,-230 653,-230"/>
</g>
<g id="clust13" class="cluster">
<title>cluster_PostsModule</title>
<polygon fill="none" stroke="black" stroke-dasharray="1,5" points="8,-146 8,-214 160,-214 160,-146 8,-146"/>
</g>
<g id="clust18" class="cluster">
<title>cluster_PostsModule_providers</title>
<polygon fill="none" stroke="black" points="16,-154 16,-206 152,-206 152,-154 16,-154"/>
</g>
<g id="clust19" class="cluster">
<title>cluster_TestModule</title>
<polygon fill="none" stroke="black" stroke-dasharray="1,5" points="291,-70 291,-138 437,-138 437,-70 291,-70"/>
</g>
<g id="clust24" class="cluster">
<title>cluster_TestModule_providers</title>
<polygon fill="none" stroke="black" points="299,-78 299,-130 429,-130 429,-78 299,-78"/>
</g>
<g id="clust25" class="cluster">
<title>cluster_UsersModule</title>
<polygon fill="none" stroke="black" stroke-dasharray="1,5" points="917,-222 917,-290 1191,-290 1191,-222 917,-222"/>
</g>
<g id="clust28" class="cluster">
<title>cluster_UsersModule_exports</title>
<polygon fill="none" stroke="black" points="1073,-230 1073,-282 1183,-282 1183,-230 1073,-230"/>
</g>
<g id="clust30" class="cluster">
<title>cluster_UsersModule_providers</title>
<polygon fill="none" stroke="black" points="925,-230 925,-282 1065,-282 1065,-230 925,-230"/>
</g>
<!-- AuthModule -->
<g id="node1" class="node">
<title>AuthModule</title>
<polygon fill="#8dd3c7" stroke="black" points="511.55,-198 508.55,-202 487.55,-202 484.55,-198 424.45,-198 424.45,-162 511.55,-162 511.55,-198"/>
<text text-anchor="middle" x="468" y="-175.8" font-family="Times,serif" font-size="14.00">AuthModule</text>
</g>
<!-- AppModule -->
<g id="node5" class="node">
<title>AppModule</title>
<polygon fill="#8dd3c7" stroke="black" points="480.66,-339 477.66,-343 456.66,-343 453.66,-339 397.34,-339 397.34,-303 480.66,-303 480.66,-339"/>
<text text-anchor="middle" x="439" y="-316.8" font-family="Times,serif" font-size="14.00">AppModule</text>
</g>
<!-- AuthModule&#45;&gt;AppModule -->
<g id="edge1" class="edge">
<title>AuthModule&#45;&gt;AppModule</title>
<path fill="none" stroke="black" d="M452.53,-198.14C452.53,-198.14 452.53,-292.93 452.53,-292.93"/>
<polygon fill="black" stroke="black" points="449.03,-292.92 452.53,-302.93 456.03,-292.93 449.03,-292.92"/>
</g>
<!-- AuthService  -->
<g id="node7" class="node">
<title>AuthService </title>
<polygon fill="#fb8072" stroke="black" points="892.98,-274 803.02,-274 803.02,-238 892.98,-238 892.98,-274"/>
<text text-anchor="middle" x="848" y="-251.8" font-family="Times,serif" font-size="14.00">AuthService </text>
</g>
<!-- AuthModule&#45;&gt;AuthService  -->
<g id="edge6" class="edge">
<title>AuthModule&#45;&gt;AuthService </title>
<path fill="none" stroke="black" stroke-dasharray="5,2" d="M491.14,-198.11C491.14,-207.9 491.14,-218 491.14,-218 491.14,-218 848,-218 848,-218 848,-218 848,-227.89 848,-227.89"/>
<polygon fill="black" stroke="black" points="844.5,-227.89 848,-237.89 851.5,-227.89 844.5,-227.89"/>
</g>
<!-- PostsModule -->
<g id="node2" class="node">
<title>PostsModule</title>
<polygon fill="#8dd3c7" stroke="black" points="419.61,-274 416.61,-278 395.61,-278 392.61,-274 330.39,-274 330.39,-238 419.61,-238 419.61,-274"/>
<text text-anchor="middle" x="375" y="-251.8" font-family="Times,serif" font-size="14.00">PostsModule</text>
</g>
<!-- PostsModule&#45;&gt;AppModule -->
<g id="edge2" class="edge">
<title>PostsModule&#45;&gt;AppModule</title>
<path fill="none" stroke="black" d="M408.36,-274.11C408.36,-274.11 408.36,-292.99 408.36,-292.99"/>
<polygon fill="black" stroke="black" points="404.86,-292.99 408.36,-302.99 411.86,-292.99 404.86,-292.99"/>
</g>
<!-- TestModule -->
<g id="node3" class="node">
<title>TestModule</title>
<polygon fill="#8dd3c7" stroke="black" points="405.65,-198 402.65,-202 381.65,-202 378.65,-198 322.35,-198 322.35,-162 405.65,-162 405.65,-198"/>
<text text-anchor="middle" x="364" y="-175.8" font-family="Times,serif" font-size="14.00">TestModule</text>
</g>
<!-- TestModule&#45;&gt;AppModule -->
<g id="edge3" class="edge">
<title>TestModule&#45;&gt;AppModule</title>
<path fill="none" stroke="black" d="M326.31,-198.21C326.31,-235.06 326.31,-315 326.31,-315 326.31,-315 387.04,-315 387.04,-315"/>
<polygon fill="black" stroke="black" points="387.04,-318.5 397.04,-315 387.04,-311.5 387.04,-318.5"/>
</g>
<!-- UsersModule -->
<g id="node4" class="node">
<title>UsersModule</title>
<polygon fill="#8dd3c7" stroke="black" points="620.92,-198 617.92,-202 596.92,-202 593.92,-198 529.08,-198 529.08,-162 620.92,-162 620.92,-198"/>
<text text-anchor="middle" x="575" y="-175.8" font-family="Times,serif" font-size="14.00">UsersModule</text>
</g>
<!-- UsersModule&#45;&gt;PostsModule -->
<g id="edge8" class="edge">
<title>UsersModule&#45;&gt;PostsModule</title>
<path fill="none" stroke="black" d="M559.76,-198.2C559.76,-222.36 559.76,-262 559.76,-262 559.76,-262 429.73,-262 429.73,-262"/>
<polygon fill="black" stroke="black" points="429.73,-258.5 419.73,-262 429.73,-265.5 429.73,-258.5"/>
</g>
<!-- UsersModule&#45;&gt;AppModule -->
<g id="edge4" class="edge">
<title>UsersModule&#45;&gt;AppModule</title>
<path fill="none" stroke="black" d="M590.24,-198.14C590.24,-236.23 590.24,-321 590.24,-321 590.24,-321 490.73,-321 490.73,-321"/>
<polygon fill="black" stroke="black" points="490.73,-317.5 480.73,-321 490.73,-324.5 490.73,-317.5"/>
</g>
<!-- UsersService  -->
<g id="node11" class="node">
<title>UsersService </title>
<polygon fill="#fb8072" stroke="black" points="1174.85,-274 1081.15,-274 1081.15,-238 1174.85,-238 1174.85,-274"/>
<text text-anchor="middle" x="1128" y="-251.8" font-family="Times,serif" font-size="14.00">UsersService </text>
</g>
<!-- UsersModule&#45;&gt;UsersService  -->
<g id="edge11" class="edge">
<title>UsersModule&#45;&gt;UsersService </title>
<path fill="none" stroke="black" stroke-dasharray="5,2" d="M620.72,-174C753.22,-174 1128,-174 1128,-174 1128,-174 1128,-227.8 1128,-227.8"/>
<polygon fill="black" stroke="black" points="1124.5,-227.8 1128,-237.8 1131.5,-227.8 1124.5,-227.8"/>
</g>
<!-- AppService -->
<g id="node6" class="node">
<title>AppService</title>
<ellipse fill="#fdb462" stroke="black" cx="241" cy="-256" rx="56.74" ry="18"/>
<text text-anchor="middle" x="241" y="-251.8" font-family="Times,serif" font-size="14.00">AppService</text>
</g>
<!-- AppService&#45;&gt;AppModule -->
<g id="edge5" class="edge">
<title>AppService&#45;&gt;AppModule</title>
<path fill="none" stroke="black" d="M241,-274.28C241,-295.32 241,-327 241,-327 241,-327 387.01,-327 387.01,-327"/>
<polygon fill="black" stroke="black" points="387.01,-330.5 397.01,-327 387.01,-323.5 387.01,-330.5"/>
</g>
<!-- AuthService -->
<g id="node8" class="node">
<title>AuthService</title>
<ellipse fill="#fdb462" stroke="black" cx="720" cy="-256" rx="59.11" ry="18"/>
<text text-anchor="middle" x="720" y="-251.8" font-family="Times,serif" font-size="14.00">AuthService</text>
</g>
<!-- AuthService&#45;&gt;AuthModule -->
<g id="edge7" class="edge">
<title>AuthService&#45;&gt;AuthModule</title>
<path fill="none" stroke="black" d="M664,-250C599.25,-250 501.46,-250 501.46,-250 501.46,-250 501.46,-208.03 501.46,-208.03"/>
<polygon fill="black" stroke="black" points="504.96,-208.03 501.46,-198.03 497.96,-208.03 504.96,-208.03"/>
</g>
<!-- PostsService -->
<g id="node9" class="node">
<title>PostsService</title>
<ellipse fill="#fdb462" stroke="black" cx="84" cy="-180" rx="60.27" ry="18"/>
<text text-anchor="middle" x="84" y="-175.8" font-family="Times,serif" font-size="14.00">PostsService</text>
</g>
<!-- PostsService&#45;&gt;PostsModule -->
<g id="edge9" class="edge">
<title>PostsService&#45;&gt;PostsModule</title>
<path fill="none" stroke="black" d="M144.57,-180C209.24,-180 302.5,-180 302.5,-180 302.5,-180 302.5,-256 302.5,-256 302.5,-256 320.32,-256 320.32,-256"/>
<polygon fill="black" stroke="black" points="320.32,-259.5 330.32,-256 320.32,-252.5 320.32,-259.5"/>
</g>
<!-- TestService -->
<g id="node10" class="node">
<title>TestService</title>
<ellipse fill="#fdb462" stroke="black" cx="364" cy="-104" rx="56.73" ry="18"/>
<text text-anchor="middle" x="364" y="-99.8" font-family="Times,serif" font-size="14.00">TestService</text>
</g>
<!-- TestService&#45;&gt;TestModule -->
<g id="edge10" class="edge">
<title>TestService&#45;&gt;TestModule</title>
<path fill="none" stroke="black" d="M364,-122.01C364,-122.01 364,-151.85 364,-151.85"/>
<polygon fill="black" stroke="black" points="360.5,-151.85 364,-161.85 367.5,-151.85 360.5,-151.85"/>
</g>
<!-- UsersService -->
<g id="node12" class="node">
<title>UsersService</title>
<ellipse fill="#fdb462" stroke="black" cx="995" cy="-256" rx="61.95" ry="18"/>
<text text-anchor="middle" x="995" y="-251.8" font-family="Times,serif" font-size="14.00">UsersService</text>
</g>
<!-- UsersService&#45;&gt;UsersModule -->
<g id="edge12" class="edge">
<title>UsersService&#45;&gt;UsersModule</title>
<path fill="none" stroke="black" d="M995,-237.97C995,-217.23 995,-186 995,-186 995,-186 630.75,-186 630.75,-186"/>
<polygon fill="black" stroke="black" points="630.75,-182.5 620.75,-186 630.75,-189.5 630.75,-182.5"/>
</g>
</g>
</svg>
